<svg xmlns="http://www.w3.org/2000/svg" aria-hidden="true" style="position:absolute;width:0;height:0;overflow:hidden"><defs><symbol id="icon-arrow-left" viewBox="0 0 32 32"><path fill="#294014" d="M16 .444C24.591.444 31.556 7.408 31.556 16S24.592 31.556 16 31.556.444 24.592.444 16 7.408.444 16 .444" style="fill:var(--color1, #294014)"/><path fill="none" stroke="#ffc901" stroke-width=".889" d="M16 .444C24.591.444 31.556 7.408 31.556 16S24.592 31.556 16 31.556.444 24.592.444 16 7.408.444 16 .444z" style="stroke:var(--color2, #ffc901)"/><path fill="none" stroke="#eff3e8" stroke-linecap="round" stroke-linejoin="round" stroke-width=".889" d="M18.667 21.333 13.334 16l5.333-5.333" style="stroke:var(--color3, #eff3e8)"/></symbol><symbol id="icon-arrow-right" viewBox="0 0 32 32"><path fill="#294014" d="M16 .444C24.591.444 31.556 7.408 31.556 16S24.592 31.556 16 31.556.444 24.592.444 16 7.408.444 16 .444" style="fill:var(--color1, #294014)"/><path fill="none" stroke="#ffc901" stroke-width=".889" d="M16 .444C24.591.444 31.556 7.408 31.556 16S24.592 31.556 16 31.556.444 24.592.444 16 7.408.444 16 .444z" style="stroke:var(--color2, #ffc901)"/><path fill="none" stroke="#eff3e8" stroke-linecap="round" stroke-linejoin="round" stroke-width=".889" d="M13.333 21.333 18.666 16l-5.333-5.333" style="stroke:var(--color3, #eff3e8)"/></symbol><symbol id="icon-close" viewBox="0 0 32 32"><path fill="none" stroke="#eff3e8" stroke-linecap="round" stroke-linejoin="round" stroke-width="1.333" d="m7 7 9 9m0 0-9 9m9-9 9 9m-9-9 9-9" style="stroke:var(--color3, #eff3e8)"/></symbol><symbol id="icon-email" viewBox="0 0 32 32"><path d="M29.333 8c0-1.467-1.2-2.667-2.667-2.667H5.333A2.675 2.675 0 0 0 2.666 8v16c0 1.467 1.2 2.667 2.667 2.667h21.333c1.467 0 2.667-1.2 2.667-2.667zm-2.666 0L16 14.667 5.333 8h21.333zm0 16H5.334V10.667l10.667 6.667 10.667-6.667z"/></symbol><symbol id="icon-menu" viewBox="0 0 32 32"><path fill="none" stroke="#eff3e8" stroke-linecap="round" stroke-width="1.333" d="M6.667 8h18.667M6.667 24h18.667M6.667 16h18.667" style="stroke:var(--color3, #eff3e8)"/></symbol><symbol id="icon-playstore" viewBox="0 0 150 32"><path fill="#eb4335" d="M13.447 15.301.123 29.008q0 .003.003.007c.408 1.49 1.811 2.585 3.475 2.585.666 0 1.29-.175 1.826-.48l.043-.024 14.998-8.388-7.019-7.407z" style="fill:var(--color4, #eb4335)"/><path fill="#fabc13" d="m26.927 12.967-.012-.008L20.44 9.32l-7.295 6.292 7.32 7.094 6.441-3.601c1.129-.591 1.895-1.744 1.895-3.075 0-1.321-.756-2.47-1.873-3.062z" style="fill:var(--color5, #fabc13)"/><path fill="#547dbf" d="M.123 2.992q-.121.43-.123.898v24.22q0 .47.123.898l13.782-13.356z" style="fill:var(--color6, #547dbf)"/><path fill="#30a851" d="m13.545 15.999 6.897-6.682L5.461.899A3.7 3.7 0 0 0 3.601.4C1.937.4.532 1.498.123 2.989v.004z" style="fill:var(--color7, #30a851)"/><path fill="#eff3e8" d="M44.552 1.752a2.8 2.8 0 0 0-.952-.579 3.3 3.3 0 0 0-1.16-.205q-.63 0-1.16.21-.526.21-.91.599-.38.39-.593.924-.208.534-.208 1.178c0 .644.069.824.208 1.183q.209.539.588.934.385.395.905.609.525.215 1.149.215.561 0 1.035-.175c.474-.175.593-.283.832-.499q.358-.324.582-.779c.224-.455.244-.637.286-1.003h-2.658V3.51h3.672l.031.409q0 .854-.276 1.563c-.276.709-.446.882-.785 1.228a3.5 3.5 0 0 1-1.201.799q-.692.28-1.529.28a4.3 4.3 0 0 1-1.597-.29 4 4 0 0 1-1.274-.819 3.8 3.8 0 0 1-.843-1.238 3.9 3.9 0 0 1-.296-1.538q0-.839.302-1.548.302-.714.842-1.243.546-.53 1.279-.819a4.3 4.3 0 0 1 1.597-.295q.816 0 1.555.27.744.27 1.321.774l-.744.709zm2.388 5.886V.15h4.863v.969h-3.718V3.36h3.505v.968h-3.505v2.341h3.771v.968h-4.915zm8.93 0h-1.144v-6.52h-2.439V.149h6.022v.969H55.87zm5.03 0V.15h1.144v7.488zm5.206 0h-1.144v-6.52h-2.439V.149h6.022v.969h-2.439zm8.769.15a4.5 4.5 0 0 1-1.628-.29 3.9 3.9 0 0 1-1.295-.814 3.75 3.75 0 0 1-.848-1.238 3.95 3.95 0 0 1-.302-1.553q0-.843.302-1.553.302-.714.848-1.238a3.9 3.9 0 0 1 1.295-.814 4.5 4.5 0 0 1 1.628-.29q.883 0 1.623.29.744.29 1.29.814.552.524.853 1.238.302.709.302 1.553 0 .839-.302 1.553a3.7 3.7 0 0 1-.853 1.238 3.9 3.9 0 0 1-1.29.814 4.4 4.4 0 0 1-1.623.29m0-.969q.624 0 1.155-.22c.531-.22.66-.351.92-.614q.39-.4.603-.929.218-.534.218-1.163c0-.629-.073-.807-.218-1.163a2.8 2.8 0 0 0-.603-.929 2.7 2.7 0 0 0-.92-.614q-.53-.22-1.155-.22c-.625 0-.801.073-1.155.22q-.525.215-.92.614-.39.394-.608.929c-.218.535-.218.744-.218 1.163s.073.807.218 1.163a2.9 2.9 0 0 0 .608.934q.395.395.92.614.53.215 1.155.215m11.697.819h-1.258l-4.483-5.781v5.781h-1.144V.15h1.258l4.483 5.786V.15h1.144zm-35.753 7.678a5 5 0 0 0-1.768-1.088 6.2 6.2 0 0 0-2.174-.379 5.8 5.8 0 0 0-2.153.389 4.8 4.8 0 0 0-1.675 1.118 4.95 4.95 0 0 0-1.092 1.717q-.385.988-.385 2.197 0 1.218.385 2.236a5.3 5.3 0 0 0 1.103 1.747q.718.74 1.695 1.138c.977.398 1.369.399 2.153.399q1.02 0 1.872-.3a4.6 4.6 0 0 0 1.498-.879q.655-.58 1.071-1.388c.416-.808.461-1.138.551-1.797h-4.93v-2.037h7.354l.073.998q0 1.707-.551 3.125a7.1 7.1 0 0 1-1.55 2.446q-1.01 1.029-2.392 1.588c-1.382.559-1.942.559-3.058.559q-1.727 0-3.204-.589a8 8 0 0 1-2.569-1.637 7.6 7.6 0 0 1-1.706-2.476q-.603-1.418-.603-3.085 0-1.657.603-3.075a7.7 7.7 0 0 1 1.695-2.486 7.7 7.7 0 0 1 2.559-1.637q1.477-.59 3.193-.589a9.1 9.1 0 0 1 3.12.539 8.4 8.4 0 0 1 2.673 1.548l-1.789 1.697zm9.726 11.692q-1.58 0-2.84-.679a5.2 5.2 0 0 1-1.976-1.847q-.718-1.178-.718-2.666c0-1.488.239-1.877.718-2.656a5.2 5.2 0 0 1 1.976-1.857q1.259-.68 2.84-.679 1.592 0 2.84.679c1.248.679 1.484 1.072 1.955 1.857q.718 1.168.718 2.656c0 1.488-.239 1.88-.718 2.666q-.707 1.168-1.955 1.847c-1.248.679-1.779.679-2.84.679m-.01-2.207q.833 0 1.487-.389c.654-.389.78-.616 1.03-1.068a3.06 3.06 0 0 0 .385-1.538q0-.849-.385-1.518-.375-.68-1.03-1.068c-.655-.388-.933-.389-1.487-.389q-.822 0-1.487.389a2.86 2.86 0 0 0-1.04 1.068 3.05 3.05 0 0 0-.374 1.518q0 .858.374 1.538.385.68 1.04 1.068.666.39 1.487.389m11.557 2.207q-1.581 0-2.84-.679a5.2 5.2 0 0 1-1.976-1.847q-.718-1.178-.718-2.666c0-1.488.239-1.877.718-2.656a5.2 5.2 0 0 1 1.976-1.857q1.259-.68 2.84-.679 1.591 0 2.84.679c1.249.679 1.484 1.072 1.956 1.857q.718 1.168.718 2.656c0 1.488-.239 1.88-.718 2.666q-.707 1.168-1.956 1.847c-1.249.679-1.779.679-2.84.679m-.011-2.207q.832 0 1.487-.389c.655-.389.78-.616 1.03-1.068a3.06 3.06 0 0 0 .385-1.538q0-.849-.385-1.518-.375-.68-1.03-1.068c-.655-.388-.933-.389-1.487-.389q-.822 0-1.487.389a2.86 2.86 0 0 0-1.04 1.068 3.05 3.05 0 0 0-.374 1.518q0 .858.374 1.538.385.68 1.04 1.068.666.39 1.487.389m11.048 2.087q-1.446 0-2.58-.669c-1.134-.669-1.352-1.055-1.789-1.827q-.655-1.168-.655-2.636 0-1.478.655-2.636c.655-1.158 1.033-1.381 1.789-1.827q1.134-.669 2.58-.669 1.133 0 2.09.419c.957.419 1.178.669 1.622 1.168l.125-1.388h2.247v9.715q0 1.658-.739 2.885-.727 1.228-2.059 1.897-1.331.68-3.151.679a7.2 7.2 0 0 1-4.525-1.548l1.051-2.007q1.394 1.348 3.308 1.348 1.082 0 1.872-.419a2.94 2.94 0 0 0 1.238-1.168q.447-.749.447-1.757v-.958q-.666.659-1.57 1.028c-.904.369-1.255.369-1.955.369zm.561-2.187q.82 0 1.487-.35.676-.36 1.071-.978.406-.62.406-1.408v-.439a2.46 2.46 0 0 0-.406-1.398 2.75 2.75 0 0 0-1.071-.958 3.1 3.1 0 0 0-1.487-.359 3 3 0 0 0-1.53.389q-.675.38-1.071 1.048-.385.669-.385 1.508c0 .839.129 1.062.385 1.508q.396.67 1.071 1.058.677.38 1.53.379m10.069 2.107h-2.735V11.831h2.735zm11.359-1.158q-1.945 1.358-4.254 1.358-1.675 0-3.006-.699c-1.331-.699-1.591-1.102-2.111-1.907q-.77-1.207-.77-2.736 0-1.447.697-2.586a5.05 5.05 0 0 1 1.924-1.797q1.228-.659 2.766-.659 1.602 0 2.809.729a4.95 4.95 0 0 1 1.893 2.007q.676 1.278.676 2.975v.32h-8.009q.187.68.655 1.198.478.52 1.186.809c.708.289 1.002.29 1.592.29q1.663 0 3.078-1.038zm-7.488-4.433h5.742a2.75 2.75 0 0 0-.478-1.308 2.6 2.6 0 0 0-1.009-.869q-.614-.32-1.383-.32-.781 0-1.394.32c-.613.32-.742.509-.998.889a2.9 2.9 0 0 0-.478 1.288zm13.429 5.591V11.831h5.159q1.956 0 3.36.599 1.415.599 2.163 1.707.759 1.108.759 2.646 0 1.527-.759 2.646-.749 1.118-2.153 1.727-1.404.599-3.35.599h-2.434v5.052zm2.747-7.358h2.153q1.8 0 2.767-.699.967-.709.967-1.967c0-1.258-.326-1.488-.978-1.947q-.967-.689-2.757-.689h-2.153zm12.908 7.358h-2.735V11.831h2.735zm10.912 0H135.4l-.146-1.228a3.9 3.9 0 0 1-1.425 1.058 4.7 4.7 0 0 1-1.893.369q-1.102 0-1.966-.409-.864-.42-1.363-1.138a2.84 2.84 0 0 1-.489-1.637q0-.968.53-1.697.541-.74 1.467-1.158.935-.42 2.132-.419.728 0 1.456.16a6.4 6.4 0 0 1 1.362.449v-.32q0-.659-.374-1.138c-.374-.479-.586-.566-1.009-.739a3.6 3.6 0 0 0-1.425-.27 4.5 4.5 0 0 0-1.435.24 4.6 4.6 0 0 0-1.342.689l-.728-1.927a9.4 9.4 0 0 1 2.039-.799q1.05-.27 2.049-.27 1.467 0 2.538.559a3.9 3.9 0 0 1 1.654 1.578q.593 1.019.593 2.406v5.641zm-5.159-1.777q.675 0 1.248-.27.583-.27.946-.749a1.9 1.9 0 0 0 .395-1.118v-.11a3.8 3.8 0 0 0-1.102-.519 4.2 4.2 0 0 0-1.238-.19q-.957 0-1.57.419-.615.41-.614 1.078 0 .409.25.749.25.33.686.519.447.19.998.19zm11.474 6.769h-2.736l2.164-5.032-5.159-9.944h2.881l3.495 7.139 3.079-7.139h2.735z" style="fill:var(--color3, #eff3e8)"/></symbol><symbol id="icon-star" viewBox="0 0 32 32"><path fill="#ffc901" d="m16 0 5.453 10.547L32 16l-10.547 5.453L16 32l-5.453-10.547L0 16l10.547-5.453z" style="fill:var(--color2, #ffc901)"/></symbol><symbol id="icon-arrow-back" viewBox="0 0 32 32"><path stroke-linecap="round" stroke-linejoin="round" stroke-width="1.333" d="M21.333 26 10.666 16 21.333 6"/></symbol></defs></svg>